<?xml version="1.0" encoding="utf-8"?>
<!-- Generator: Adobe Illustrator 16.0.0, SVG Export Plug-In . SVG Version: 6.00 Build 0)  -->
<!DOCTYPE svg PUBLIC "-//W3C//DTD SVG 1.1//EN" "http://www.w3.org/Graphics/SVG/1.1/DTD/svg11.dtd">
<svg version="1.1" id="Layer_1" xmlns="http://www.w3.org/2000/svg" xmlns:xlink="http://www.w3.org/1999/xlink" x="0px" y="0px"
	 width="540px" height="116.47px" viewBox="0 0 540 116.47" enable-background="new 0 0 540 116.47" xml:space="preserve">
<path fill="#FFFFFF" d="M59.113,8.404v15.803h-8.748c0,0-7.902-1.129-7.902,6.491v12.417h16.65l-1.975,17.152H42.462v48.036H23.273
	V60.048H10.292V43.115h13.546V28.722c0,0-1.693-7.901,5.362-14.392c7.055-6.49,16.367-5.926,16.367-5.926H59.113z"/>
<path fill="#FFFFFF" d="M105.382,43.397v8.611c-4.896-6.443-11.743-10.446-19.319-10.446c-14.884,0-26.95,13.123-26.95,34.499
	c0,21.236,12.066,34.5,26.95,34.5c7.648,0,14.552-4.079,19.458-10.629l-0.127,8.371h18.484V43.397H105.382z M104.349,82.481
	c0,6.546-5.564,12.7-12.427,12.7c-6.864,0-12.428-6.154-12.428-12.7V70.065c0-6.546,5.564-12.699,12.428-12.699
	c6.863,0,12.427,6.153,12.427,12.699V82.481z"/>
<path fill="#FFFFFF" d="M274.868,108.726v-8.611c4.896,6.443,11.742,10.446,19.318,10.446c14.884,0,26.95-13.123,26.95-34.5
	c0-21.235-12.066-34.499-26.95-34.499c-7.648,0-14.552,4.079-19.458,10.629l0.127-42.865l-19.222,2.163v96.941L274.868,108.726z
	 M275.9,69.642c0-6.546,5.564-12.7,12.427-12.7c6.864,0,12.429,6.154,12.429,12.7v12.416c0,6.546-5.564,12.699-12.429,12.699
	c-6.862,0-12.427-6.153-12.427-12.699V69.642z"/>
<path fill="#FFFFFF" d="M165.644,94.819c0,0-14.816,0.848-14.816-18.343v-1.049c0-19.19,14.816-18.343,14.816-18.343
	c10.018-0.142,13.546,3.386,13.546,3.386l4.656-13.969c-8.043-5.926-32.312-6.914-43.177,3.104
	c-9.401,8.669-9.399,22.716-9.228,26.346c-0.171,3.63-0.173,17.679,9.228,26.347c10.865,10.018,35.134,9.03,43.177,3.104
	l-4.656-13.969C179.189,91.433,175.661,94.96,165.644,94.819"/>
<path fill="#FFFFFF" d="M247.623,82.905c0,0,7.76-40.637-29.349-40.857c-37.11-0.221-31.748,36.766-31.748,36.766
	c0.847,22.435,11.147,28.926,28.785,31.043c17.637,2.115,31.042-4.657,31.042-4.657l-4.092-13.122c0,0-14.251,4.374-25.539,3.386
	c-11.288-0.986-10.442-12.558-10.442-12.558H247.623z M205.998,69.783c0,0-0.988-14.392,11.994-14.392
	c12.981,0,11.993,14.392,11.993,14.392H205.998z"/>
<path fill="#FFFFFF" d="M359.375,42.448c-24.157,0-32.287,14.575-32.287,34.057c0,20.668,10.476,34.057,32.287,34.057
	c17.832,0,32.288-11.981,32.288-34.057C391.663,57.696,382.437,42.448,359.375,42.448 M371.961,82.138
	c0,6.546-5.709,12.7-12.752,12.7c-7.042,0-12.752-6.154-12.752-12.7V69.722c0-6.546,5.71-12.699,12.752-12.699
	c7.043,0,12.752,6.153,12.752,12.699V82.138z"/>
<path fill="#FFFFFF" d="M430.672,42.448c-24.157,0-32.287,14.575-32.287,34.057c0,20.668,10.477,34.057,32.287,34.057
	c17.832,0,32.288-11.981,32.288-34.057C462.96,57.696,453.735,42.448,430.672,42.448 M443.259,82.138
	c0,6.546-5.709,12.7-12.752,12.7c-7.042,0-12.752-6.154-12.752-12.7V69.722c0-6.546,5.71-12.699,12.752-12.699
	c7.043,0,12.752,6.153,12.752,12.699V82.138z"/>
<polygon fill="#FFFFFF" points="530.662,108.586 509.554,75.909 529.724,43.229 509.084,43.229 489.384,72.482 489.384,8.988 
	469.996,11.02 469.996,108.586 489.384,108.586 489.384,75.342 510.649,108.586 "/>
</svg>
