<?xml version="1.0" encoding="utf-8"?>
<!-- Generator: Adobe Illustrator 21.0.0, SVG Export Plug-In . SVG Version: 6.00 Build 0)  -->
<svg version="1.1" id="Capa_1" xmlns="http://www.w3.org/2000/svg" xmlns:xlink="http://www.w3.org/1999/xlink" x="0px" y="0px"
	 viewBox="0 0 389.1 389.1" style="enable-background:new 0 0 389.1 389.1;" xml:space="preserve">
<style type="text/css">
	.st0{fill:#F6A800;}
</style>
<g>
	<g>
		<path class="st0" d="M388.6,151.2c-4.4-40.9-38.8-71.9-79.9-72.3h-0.2c-2.9,0-5.8,0.2-8.6,0.5c-17.7-55.7-77.1-86.5-132.8-68.8
			c-33.3,10.6-59.2,36.9-69.3,70.3c-5.8-1.3-11.6-1.9-17.5-1.9C35.5,79.4-0.4,116,0,160.8c0.4,41.1,31.5,75.4,72.3,79.9v79h244.4
			v-79C361.3,235.8,393.5,195.7,388.6,151.2z"/>
	</g>
</g>
<g>
	<g>
		<path class="st0" d="M308.7,335.6H72.4v40c0,4.4,3.6,8,8,8h228.4c4.4,0,8-3.6,8-8v-40H308.7z"/>
	</g>
</g>
</svg>
